<svg xmlns="http://www.w3.org/2000/svg" viewBox="0 0 64 64" width="64" height="64" role="img" aria-label="CompCleared">
  <defs>
    <linearGradient id="surface" x1="12" y1="6" x2="54" y2="58" gradientUnits="userSpaceOnUse">
      <stop offset="0" stop-color="#0b1f4d"/>
      <stop offset="0.55" stop-color="#174ea6"/>
      <stop offset="1" stop-color="#2563eb"/>
    </linearGradient>
    <linearGradient id="shine" x1="18" y1="8" x2="45" y2="48" gradientUnits="userSpaceOnUse">
      <stop offset="0" stop-color="#ffffff" stop-opacity="0.28"/>
      <stop offset="1" stop-color="#ffffff" stop-opacity="0"/>
    </linearGradient>
  </defs>
  <circle cx="32" cy="32" r="30" fill="url(#surface)"/>
  <circle cx="32" cy="32" r="29" fill="none" stroke="#93c5fd" stroke-opacity="0.24" stroke-width="2"/>
  <path d="M19 27.8c0-7.4 5.6-13.2 13.4-13.2 4 0 7.4 1.5 9.9 4l-4 4.2c-1.5-1.5-3.4-2.3-5.8-2.3-4.2 0-7.1 3-7.1 7.3s2.9 7.3 7.1 7.3c2.6 0 4.6-.9 6.2-2.7l4 4c-2.6 3-6.1 4.6-10.4 4.6C24.6 41 19 35.2 19 27.8z" fill="#ffffff"/>
  <path d="M27.7 35.2l5.2 5.2 12.4-12.5" fill="none" stroke="#67e8f9" stroke-width="5" stroke-linecap="round" stroke-linejoin="round"/>
  <path d="M12 17c4.5-6.1 11.8-10 20-10 8.5 0 15.9 4.2 20.4 10.6-7-4.1-14.4-6.1-22.1-5.9-6.6.1-12.7 1.9-18.3 5.3z" fill="url(#shine)"/>
</svg>
