<svg width="512" height="512" viewBox="0 0 512 512" fill="none" xmlns="http://www.w3.org/2000/svg" role="img" aria-label="CompCleared">
  <defs>
    <linearGradient id="surface" x1="96" y1="48" x2="432" y2="464" gradientUnits="userSpaceOnUse">
      <stop offset="0" stop-color="#0b1f4d"/>
      <stop offset="0.55" stop-color="#174ea6"/>
      <stop offset="1" stop-color="#2563eb"/>
    </linearGradient>
    <linearGradient id="shine" x1="144" y1="64" x2="360" y2="384" gradientUnits="userSpaceOnUse">
      <stop offset="0" stop-color="#ffffff" stop-opacity="0.28"/>
      <stop offset="1" stop-color="#ffffff" stop-opacity="0"/>
    </linearGradient>
    <filter id="softShadow" x="-20%" y="-20%" width="140%" height="140%">
      <feDropShadow dx="0" dy="18" stdDeviation="20" flood-color="#0f172a" flood-opacity="0.22"/>
    </filter>
  </defs>
  <circle cx="256" cy="256" r="240" fill="url(#surface)" filter="url(#softShadow)"/>
  <circle cx="256" cy="256" r="230" fill="none" stroke="#93c5fd" stroke-opacity="0.24" stroke-width="16"/>
  <path d="M152 224c0-59 45-106 107-106 32 0 59 12 79 32l-32 34c-12-12-28-18-46-18-34 0-57 24-57 58s23 58 57 58c21 0 37-7 50-21l32 32c-21 24-49 36-83 36-62 0-107-46-107-105z" fill="#ffffff"/>
  <path d="M222 282l42 42 100-100" stroke="#67e8f9" stroke-width="40" stroke-linecap="round" stroke-linejoin="round"/>
  <path d="M96 136C132 87 190 56 256 56c68 0 128 34 164 85-56-33-115-49-177-47-53 1-102 15-147 42z" fill="url(#shine)"/>
</svg>
